<svg viewBox="0 0 640 640" xmlns="http://www.w3.org/2000/svg"><rect fill="#ec663b" height="640" rx="142.2" width="640"/><g fill="#fff" fill-rule="evenodd"><path d="m430.7 144.2 10.3 8-54.6 105.5h-13.5c0-.1 57.8-113.5 57.8-113.5z"/><path d="m370.2 112.5 15.5-3.3-60.9 118.5-9.8-5.8 55.3-109.4z"/><path d="m368.1 118.8 7.2-9 72.4 43.4-10.3 6.3z"/><path d="m123.7 192.2 5.1-10 59.5 35.1v13.9l-64.7-39z"/><path d="m247.7 334 5.1-10 60 34.9v13l-65.2-37.8h.1z"/><path d="m369.2 403.8 11.4-6.7 56.3 32.2v13.4l-67.7-39z"/><path d="m245.2 251.4 11.4 8.7v287.2l-11.4 6.5z"/><path d="m183.2 219 11.4 6.9v346.6l-11.4 6z"/><path d="m121.2 177.8 11.6 6.8-.2 355.5-11.4 6z"/><path d="m493.2 108 11.4 6.9v288.8l-11.4-6.9z"/><path d="m431.2 304.2-12.9-3.9 24.3-44.5v174.6l-11.4 6v-132.3z"/><path d="m369.2 332.5 11.4-6v70.6l-11.4 6.7z"/><path d="m256.6 269.5-11.4-18.1 67.7 36.6v11.9z"/><path d="m188.4 152.4v-13.2l199.4 114.2-8.3 8.5-191.1-109.4z"/><path d="m307.2 289.5 11.4.2v72.3l-11.4 6z"/><path d="m375.4 251.1 11.1 6.4-73.5 42.9v-12.9l62.5-36.4z"/><path d="m246.2 184.2 11.1 6.9-68.9 40.1v-13.9z"/><path d="m188.4 139.1v13.4l-55.6 32.1-11.5-6.8 67.2-38.7z"/><path d="m496.8 112.2 2.6 11.4-62.5 35.8-11.4-7.8 71.3-39.5z"/><path d="m436.4 73.9v13.4l-50.6 29-16-3.9z"/><path d="m504.6 114.9-17.6 2.8-50.6-30.4v-13.4z"/><path d="m493.2 396.8 11.4 6.9-67.7 39v-13.4z"/><path d="m435.8 288.5 4.9 10.4-127.8 73.3v-13.5l122.9-70.3z"/><path d="m246.7 539.7 9.9 7.7-67.7 38.5v-13.9z"/><path d="m121.2 546.4 11.4-6 56.3 31.5v13.9l-67.7-39.5z"/></g></svg>